<svg width="33" height="40" viewBox="0 0 33 40" fill="none" xmlns="http://www.w3.org/2000/svg">
<path d="M16.5 40C11.9281 40 8.03481 38.386 4.82006 35.1579C1.60531 31.9298 -0.00137412 28 8.81787e-07 23.3684C8.81787e-07 21.1579 0.421438 19.0442 1.26431 17.0274C2.10719 15.0105 3.30138 13.2295 4.84688 11.6842L16.5 0L28.1531 11.6842C29.7 13.2281 30.8949 15.0091 31.7377 17.0274C32.5806 19.0456 33.0014 21.1593 33 23.3684C33 28 31.3933 31.9298 28.1799 35.1579C24.9666 38.386 21.0732 40 16.5 40ZM4.125 23.3684H28.875C28.875 21.7193 28.5656 20.1495 27.9469 18.6589C27.3281 17.1684 26.4344 15.8611 25.2656 14.7368L16.5 5.89474L7.73438 14.7368C6.56563 15.8596 5.67187 17.167 5.05313 18.6589C4.43438 20.1509 4.125 21.7207 4.125 23.3684Z" fill="white"/>
</svg>
