<svg width="48" height="48" viewBox="0 0 48 48" fill="none" xmlns="http://www.w3.org/2000/svg">
<path d="M37.3953 24C37.3953 27.5527 35.984 30.9598 33.4719 33.4719C30.9598 35.9841 27.5526 37.3953 24 37.3953C20.4473 37.3953 17.0401 35.9841 14.528 33.4719C12.0159 30.9598 10.6046 27.5527 10.6046 24C10.6046 20.4473 12.0159 17.0402 14.528 14.5281C17.0401 12.0159 20.4473 10.6046 24 10.6046C27.5526 10.6046 30.9598 12.0159 33.4719 14.5281C35.984 17.0402 37.3953 20.4473 37.3953 24Z" fill="white"/>
<path fill-rule="evenodd" clip-rule="evenodd" d="M24 0C24.4441 0 24.87 0.176412 25.184 0.490426C25.498 0.80444 25.6744 1.23034 25.6744 1.67442V3.90698C25.6744 4.35106 25.498 4.77696 25.184 5.09097C24.87 5.40498 24.4441 5.5814 24 5.5814C23.5559 5.5814 23.13 5.40498 22.816 5.09097C22.502 4.77696 22.3256 4.35106 22.3256 3.90698V1.67442C22.3256 1.23034 22.502 0.80444 22.816 0.490426C23.13 0.176412 23.5559 0 24 0ZM7.03033 7.03033C7.34428 6.71676 7.76986 6.54064 8.21358 6.54064C8.6573 6.54064 9.08288 6.71676 9.39684 7.03033L10.2742 7.90549C10.5794 8.22114 10.7484 8.64403 10.7448 9.08306C10.7412 9.52209 10.5653 9.94214 10.255 10.2527C9.94464 10.5633 9.52476 10.7396 9.08573 10.7437C8.64671 10.7477 8.22366 10.5791 7.90772 10.2742L7.03033 9.39684C6.71676 9.08288 6.54064 8.6573 6.54064 8.21358C6.54064 7.76986 6.71676 7.34428 7.03033 7.03033ZM40.9697 7.03033C41.2832 7.34428 41.4594 7.76986 41.4594 8.21358C41.4594 8.6573 41.2832 9.08288 40.9697 9.39684L40.0923 10.2742C39.7749 10.57 39.355 10.731 38.9213 10.7234C38.4875 10.7157 38.0736 10.54 37.7668 10.2332C37.46 9.92642 37.2843 9.51254 37.2766 9.07875C37.269 8.64496 37.43 8.22513 37.7258 7.90772L38.6032 7.03033C38.9171 6.71676 39.3427 6.54064 39.7864 6.54064C40.2301 6.54064 40.6557 6.71676 40.9697 7.03033ZM0 24C0 23.5559 0.176412 23.13 0.490426 22.816C0.80444 22.502 1.23034 22.3256 1.67442 22.3256H3.90698C4.35106 22.3256 4.77696 22.502 5.09097 22.816C5.40498 23.13 5.5814 23.5559 5.5814 24C5.5814 24.4441 5.40498 24.87 5.09097 25.184C4.77696 25.498 4.35106 25.6744 3.90698 25.6744H1.67442C1.23034 25.6744 0.80444 25.498 0.490426 25.184C0.176412 24.87 0 24.4441 0 24ZM42.4186 24C42.4186 23.5559 42.595 23.13 42.909 22.816C43.223 22.502 43.6489 22.3256 44.093 22.3256H46.3256C46.7697 22.3256 47.1956 22.502 47.5096 22.816C47.8236 23.13 48 23.5559 48 24C48 24.4441 47.8236 24.87 47.5096 25.184C47.1956 25.498 46.7697 25.6744 46.3256 25.6744H44.093C43.6489 25.6744 43.223 25.498 42.909 25.184C42.595 24.87 42.4186 24.4441 42.4186 24ZM37.7258 37.7258C38.0397 37.4122 38.4653 37.2361 38.909 37.2361C39.3527 37.2361 39.7783 37.4122 40.0923 37.7258L40.9697 38.6032C41.1342 38.7565 41.2661 38.9413 41.3577 39.1467C41.4492 39.3521 41.4984 39.5738 41.5023 39.7986C41.5063 40.0235 41.465 40.2468 41.3807 40.4553C41.2965 40.6638 41.1712 40.8532 41.0122 41.0122C40.8532 41.1712 40.6638 41.2965 40.4553 41.3807C40.2468 41.465 40.0235 41.5063 39.7986 41.5023C39.5738 41.4984 39.3521 41.4492 39.1467 41.3577C38.9413 41.2661 38.7565 41.1342 38.6032 40.9697L37.7258 40.0923C37.4122 39.7783 37.2361 39.3527 37.2361 38.909C37.2361 38.4653 37.4122 38.0397 37.7258 37.7258ZM10.2742 37.7258C10.5878 38.0397 10.7639 38.4653 10.7639 38.909C10.7639 39.3527 10.5878 39.7783 10.2742 40.0923L9.39684 40.9697C9.24355 41.1342 9.05869 41.2661 8.85329 41.3577C8.6479 41.4492 8.42618 41.4984 8.20135 41.5023C7.97653 41.5063 7.75321 41.465 7.54471 41.3807C7.33622 41.2965 7.14682 41.1712 6.98782 41.0122C6.82882 40.8532 6.70348 40.6638 6.61926 40.4553C6.53505 40.2468 6.49369 40.0235 6.49766 39.7986C6.50162 39.5738 6.55083 39.3521 6.64235 39.1467C6.73387 38.9413 6.86582 38.7565 7.03033 38.6032L7.90549 37.7258C8.06099 37.5702 8.24562 37.4467 8.44884 37.3625C8.65206 37.2783 8.86988 37.235 9.08986 37.235C9.30984 37.235 9.52766 37.2783 9.73088 37.3625C9.9341 37.4467 10.1187 37.5702 10.2742 37.7258ZM24 42.4186C24.4441 42.4186 24.87 42.595 25.184 42.909C25.498 43.223 25.6744 43.6489 25.6744 44.093V46.3256C25.6744 46.7697 25.498 47.1956 25.184 47.5096C24.87 47.8236 24.4441 48 24 48C23.5559 48 23.13 47.8236 22.816 47.5096C22.502 47.1956 22.3256 46.7697 22.3256 46.3256V44.093C22.3256 43.6489 22.502 43.223 22.816 42.909C23.13 42.595 23.5559 42.4186 24 42.4186Z" fill="white"/>
</svg>
