<svg width="23" height="22" viewBox="0 0 23 22" fill="none" xmlns="http://www.w3.org/2000/svg">
<path d="M8.4303 21C6.70956 20.4862 5.15116 19.5357 3.90678 18.2409C4.30716 17.7661 4.55674 17.1826 4.62359 16.565C4.69045 15.9475 4.57153 15.3241 4.28207 14.7746C3.9926 14.225 3.54575 13.7743 2.99869 13.4802C2.45164 13.186 1.82926 13.0618 1.2112 13.1234C1.07039 12.4337 0.999634 11.7315 1 11.0276C1 9.94039 1.16646 8.8917 1.47649 7.90647H1.52018C2.05064 7.90664 2.5724 7.77161 3.03617 7.51412C3.49995 7.25664 3.89045 6.88519 4.17079 6.43487C4.45114 5.98454 4.61209 5.47019 4.63843 4.94039C4.66478 4.41058 4.55566 3.8828 4.32137 3.40689C5.54099 2.27124 7.01595 1.44571 8.62172 1C8.88305 1.51311 9.28124 1.94392 9.77222 2.24477C10.2632 2.54562 10.8278 2.70478 11.4037 2.70464C11.9795 2.70478 12.5441 2.54562 13.0351 2.24477C13.5261 1.94392 13.9243 1.51311 14.1856 1C15.7914 1.44571 17.2663 2.27124 18.486 3.40689C18.25 3.88614 18.1409 4.41794 18.1693 4.95139C18.1976 5.48484 18.3625 6.00209 18.6479 6.45361C18.9334 6.90514 19.33 7.27583 19.7998 7.53022C20.2695 7.7846 20.7967 7.91415 21.3308 7.90647C21.6476 8.91652 21.8083 9.96901 21.8073 11.0276C21.8073 11.7454 21.7345 12.4466 21.5961 13.1239C20.9781 13.0623 20.3557 13.1866 19.8086 13.4807C19.2616 13.7749 18.8147 14.2255 18.5253 14.7751C18.2358 15.3246 18.1169 15.9481 18.1837 16.5656C18.2506 17.1831 18.5002 17.7666 18.9005 18.2415C17.6561 19.536 16.0977 20.4864 14.377 21C14.175 20.3702 13.7781 19.8208 13.2438 19.4311C12.7094 19.0413 12.0651 18.8313 11.4037 18.8313C10.7423 18.8313 10.0979 19.0413 9.56355 19.4311C9.02918 19.8208 8.63236 20.3702 8.4303 21Z" stroke="#D9D9D9" stroke-width="1.66667" stroke-linejoin="round"/>
<path d="M11.4037 14.6689C11.8819 14.6689 12.3554 14.5747 12.7972 14.3917C13.239 14.2087 13.6404 13.9405 13.9785 13.6023C14.3166 13.2642 14.5848 12.8628 14.7678 12.421C14.9508 11.9792 15.045 11.5058 15.045 11.0276C15.045 10.5494 14.9508 10.0759 14.7678 9.63412C14.5848 9.19233 14.3166 8.79092 13.9785 8.4528C13.6404 8.11467 13.239 7.84646 12.7972 7.66347C12.3554 7.48048 11.8819 7.38629 11.4037 7.38629C10.438 7.38629 9.51183 7.76993 8.82896 8.4528C8.14609 9.13567 7.76245 10.0618 7.76245 11.0276C7.76245 11.9933 8.14609 12.9195 8.82896 13.6023C9.51183 14.2852 10.438 14.6689 11.4037 14.6689Z" stroke="#D9D9D9" stroke-width="1.66667" stroke-linejoin="round"/>
</svg>
