<svg width="60" height="60" viewBox="0 0 60 60" fill="none" xmlns="http://www.w3.org/2000/svg">
<path d="M10.3029 5.625C10.6723 5.625 11.0381 5.55225 11.3794 5.41091C11.7207 5.26957 12.0308 5.0624 12.292 4.80124C12.5532 4.54007 12.7604 4.23003 12.9018 3.8888C13.0432 3.54757 13.1159 3.18184 13.1159 2.8125C13.1159 2.44316 13.0432 2.07743 12.9018 1.7362C12.7604 1.39497 12.5532 1.08493 12.292 0.823762C12.0308 0.562597 11.7207 0.35543 11.3794 0.214089C11.0381 0.0727472 10.6723 -7.78332e-09 10.3029 0C9.5568 1.57191e-08 8.84129 0.296316 8.31374 0.823762C7.7862 1.35121 7.48982 2.06658 7.48982 2.8125C7.48982 3.55842 7.7862 4.27379 8.31374 4.80124C8.84129 5.32868 9.5568 5.625 10.3029 5.625ZM19.0796 15.57C19.5815 13.2516 20.6262 11.0853 22.1277 9.2487C23.6293 7.41214 25.545 5.9577 27.7176 5.00472C29.8903 4.05175 32.258 3.6274 34.6264 3.76649C36.9949 3.90558 39.2966 4.60415 41.3428 5.80487C43.3889 7.0056 45.1211 8.67427 46.3973 10.674C47.6735 12.6737 48.4572 14.9474 48.6843 17.3086C48.9113 19.6698 48.5752 22.0511 47.7034 24.2573C46.8317 26.4634 45.4492 28.4315 43.6693 30C45.4461 31.5688 46.8259 33.5362 47.6954 35.741C48.565 37.9458 48.8996 40.3252 48.6719 42.6842C48.4442 45.0433 47.6607 47.3148 46.3855 49.3127C45.1103 51.3106 43.3797 52.9779 41.3357 54.178C39.2916 55.3782 36.9922 56.077 34.6259 56.2172C32.2596 56.3574 29.8937 55.935 27.7222 54.9846C25.5506 54.0342 23.6353 52.5829 22.133 50.7496C20.6307 48.9163 19.5843 46.7532 19.0796 44.4375C16.8486 45.0673 14.502 45.1716 12.2239 44.7423C9.94575 44.313 7.79815 43.3617 5.94958 41.963C4.10101 40.5644 2.60176 38.7565 1.56949 36.6812C0.537216 34.6059 0 32.3196 0 30.0019C0 27.6841 0.537216 25.3979 1.56949 23.3226C2.60176 21.2473 4.10101 19.4394 5.94958 18.0407C7.79815 16.6421 9.94575 15.6908 12.2239 15.2615C14.502 14.8321 16.8486 14.9402 19.0796 15.57ZM10.3029 60C11.0489 60 11.7644 59.7037 12.292 59.1762C12.8195 58.6488 13.1159 57.9334 13.1159 57.1875C13.1159 56.4416 12.8195 55.7262 12.292 55.1988C11.7644 54.6713 11.0489 54.375 10.3029 54.375C9.5568 54.375 8.84129 54.6713 8.31374 55.1988C7.7862 55.7262 7.48982 56.4416 7.48982 57.1875C7.48982 57.9334 7.7862 58.6488 8.31374 59.1762C8.84129 59.7037 9.5568 60 10.3029 60ZM60 30C60 30.7459 59.7036 31.4613 59.1761 31.9887C58.6485 32.5162 57.933 32.8125 57.187 32.8125C56.4409 32.8125 55.7254 32.5162 55.1978 31.9887C54.6703 31.4613 54.3739 30.7459 54.3739 30C54.3739 29.2541 54.6703 28.5387 55.1978 28.0113C55.7254 27.4838 56.4409 27.1875 57.187 27.1875C57.933 27.1875 58.6485 27.4838 59.1761 28.0113C59.7036 28.5387 60 29.2541 60 30Z" fill="white"/>
</svg>
