<svg width="36" height="72" viewBox="0 0 36 72" fill="none" xmlns="http://www.w3.org/2000/svg">
<path d="M28.8 39.6V10.8C28.8 7.93566 27.6621 5.18864 25.6368 3.16325C23.6114 1.13785 20.8643 0 18 0C15.1357 0 12.3886 1.13785 10.3632 3.16325C8.33785 5.18864 7.2 7.93566 7.2 10.8V39.6C4.17769 41.8667 1.9452 45.0269 0.818756 48.633C-0.307687 52.239 -0.270971 56.1081 0.923701 59.6921C2.11837 63.2761 4.41043 66.3934 7.47521 68.6024C10.54 70.8113 14.2221 72 18 72C21.7779 72 25.46 70.8113 28.5248 68.6024C31.5896 66.3934 33.8816 63.2761 35.0763 59.6921C36.271 56.1081 36.3077 52.239 35.1812 48.633C34.0548 45.0269 31.8223 41.8667 28.8 39.6ZM18 7.2C18.9548 7.2 19.8705 7.57929 20.5456 8.25442C21.2207 8.92955 21.6 9.84522 21.6 10.8V21.6H14.4V10.8C14.4 9.84522 14.7793 8.92955 15.4544 8.25442C16.1295 7.57929 17.0452 7.2 18 7.2Z" fill="white"/>
</svg>
